<svg xmlns="http://www.w3.org/2000/svg" viewBox="0 0 125 125"><defs><linearGradient id="a" x1="18.774" y1="107.162" x2="107.098" y2="18.839" gradientUnits="userSpaceOnUse"><stop offset="0" stop-color="#6f23be"/><stop offset=".178" stop-color="#6c27bf"/><stop offset=".363" stop-color="#6334c1"/><stop offset=".551" stop-color="#5348c6"/><stop offset=".741" stop-color="#3e65cc"/><stop offset=".93" stop-color="#238ad4"/><stop offset="1" stop-color="#179ad7"/></linearGradient></defs><path d="M32.765 113.62a22.686 22.686 0 0 0 2.19 4.07c.25.44.51.875.79 1.305A62.489 62.489 0 0 1 0 62.5q0-1.143.04-2.277A12.44 12.44 0 0 1 12.445 48.33c14.202-.096 29.28-.197 31.291-.221a14.837 14.837 0 0 1 8.735 1.915c9.3 5.29 10.63 18.2 3.465 25.985a19.02 19.02 0 0 1-8.56 5.46c-12.605 4.725-19.93 19.54-14.61 32.15ZM64.783.04a62.27 62.27 0 0 0-35.816 9.707A6.256 6.256 0 0 0 32.23 21.31c5.904.04 10.251.07 11.205.081a40.599 40.599 0 0 1 15.855 3.72c13.505 6.115 22.88 20.325 22.885 35.095A37.24 37.24 0 0 1 51.82 97.43c-5.48 1.51-7.725 7.245-7.1 12.97a14.008 14.008 0 0 0 4.48 8.99A21.717 21.717 0 0 0 62.8 125 62.5 62.5 0 0 0 64.783.04Z" fill="url(#a)"/></svg>