<svg xmlns="http://www.w3.org/2000/svg" viewBox="0 0 375 125">
  <defs>
    <linearGradient id="a" x1="18.774" y1="107.162" x2="107.098" y2="18.839" gradientUnits="userSpaceOnUse">
      <stop offset="0" stop-color="#6f23be" />
      <stop offset=".178" stop-color="#6c27bf" />
      <stop offset=".363" stop-color="#6334c1" />
      <stop offset=".551" stop-color="#5348c6" />
      <stop offset=".741" stop-color="#3e65cc" />
      <stop offset=".93" stop-color="#238ad4" />
      <stop offset="1" stop-color="#179ad7" />
    </linearGradient>
  </defs>
  <path
    d="M32.765 113.62a22.686 22.686 0 0 0 2.19 4.07c.25.44.51.875.79 1.305A62.489 62.489 0 0 1 0 62.5q0-1.143.04-2.277A12.44 12.44 0 0 1 12.445 48.33c14.202-.096 29.28-.197 31.291-.221a14.837 14.837 0 0 1 8.735 1.915c9.3 5.29 10.63 18.2 3.465 25.985a19.02 19.02 0 0 1-8.56 5.46c-12.605 4.725-19.93 19.54-14.61 32.15ZM64.783.04a62.27 62.27 0 0 0-35.816 9.707A6.256 6.256 0 0 0 32.23 21.31c5.904.04 10.251.07 11.205.081a40.599 40.599 0 0 1 15.855 3.72c13.505 6.115 22.88 20.325 22.885 35.095A37.24 37.24 0 0 1 51.82 97.43c-5.48 1.51-7.725 7.245-7.1 12.97a14.008 14.008 0 0 0 4.48 8.99A21.717 21.717 0 0 0 62.8 125 62.5 62.5 0 0 0 64.783.04Z"
    fill="url(#a)" />
  <path
    d="M204.875 43.778a20.988 20.988 0 0 0-9.23-7.7 33.99 33.99 0 0 0-14.13-2.716H155v61.25h14.175V77.728h12.34a34.488 34.488 0 0 0 14.13-2.67 20.603 20.603 0 0 0 9.23-7.7 21.254 21.254 0 0 0 3.24-11.77 21.192 21.192 0 0 0-3.24-11.81ZM190.44 63.422q-3.33 2.752-9.715 2.754h-11.55V44.912h11.55q6.39 0 9.715 2.76 3.322 2.753 3.325 7.916a9.614 9.614 0 0 1-3.325 7.834Zm66.735-4.86a23.153 23.153 0 0 0-9.185-8.616 30.09 30.09 0 0 0-26.645 0 23.08 23.08 0 0 0-9.23 8.615 23.73 23.73 0 0 0-3.325 12.516 23.712 23.712 0 0 0 3.325 12.51 23.09 23.09 0 0 0 9.23 8.62 30.134 30.134 0 0 0 26.645 0 23.165 23.165 0 0 0 9.185-8.62 23.712 23.712 0 0 0 3.325-12.51 23.73 23.73 0 0 0-3.325-12.516Zm-13.865 22.01a11.384 11.384 0 0 1-8.62 3.54 11.522 11.522 0 0 1-8.665-3.54q-3.413-3.548-3.41-9.495 0-5.948 3.41-9.496a11.526 11.526 0 0 1 8.665-3.544 11.388 11.388 0 0 1 8.62 3.545q3.36 3.547 3.365 9.495 0 5.947-3.365 9.495Zm43.365-31.985a15.19 15.19 0 0 0-6.605 5.165v-6.215h-13.035v47.075h13.65V72.388q0-6.563 3.325-9.84 3.323-3.286 9.185-3.286.787 0 3.065.176v-12.6a24.554 24.554 0 0 0-9.585 1.75Zm39.345 35a6.578 6.578 0 0 1-1.705.615 9.177 9.177 0 0 1-2.145.26 5.669 5.669 0 0 1-4.33-1.615 6.431 6.431 0 0 1-1.53-4.595V29.687h-13.65v49.35q0 7.793 4.46 12.035 4.463 4.245 12.425 4.24a22.37 22.37 0 0 0 7.09-1.135Zm43.12-31.54q-5.865-5.205-16.8-5.21a41.426 41.426 0 0 0-11.07 1.49 29.491 29.491 0 0 0-9.23 4.2l4.9 9.535a19.483 19.483 0 0 1 6.17-3.19 23.657 23.657 0 0 1 7.39-1.185q5.43 0 8.14 2.41a8.702 8.702 0 0 1 2.71 6.865H350.5q-10.32 0-15.265 3.765a12.258 12.258 0 0 0-4.945 10.325 13.216 13.216 0 0 0 2.1 7.35 14.006 14.006 0 0 0 6.08 5.074 22.274 22.274 0 0 0 9.405 1.836q10.5 0 14.35-6.56v5.86H375v-26.86q0-10.5-5.86-15.706Zm-7.79 27.69a8.864 8.864 0 0 1-3.85 4.77 11.884 11.884 0 0 1-6.21 1.62 9.264 9.264 0 0 1-5.645-1.53 4.916 4.916 0 0 1-2.055-4.16q0-5.513 8.4-5.51h9.36Z"
    fill="currentColor" />
</svg>